<svg width="156" height="156" viewBox="0 0 156 156" fill="none" xmlns="http://www.w3.org/2000/svg">
<circle cx="78" cy="78" r="78" fill="#F5F5F5"/>
<path d="M142 78C142 113.346 113.346 142 78 142C42.6538 142 14 113.346 14 78C14 42.6538 42.6538 14 78 14C113.346 14 142 42.6538 142 78Z" stroke="#121212" stroke-width="2"/>
<path d="M124.192 80.473C124.087 81.9879 125.135 82.9292 126.667 83.0868L124.083 83.2238L124.032 83.9558L127.56 84.2012L127.776 81.09L126.81 81.0229L126.674 82.9851C125.745 82.6753 125.161 82.1238 125.24 80.975C125.334 79.6329 126.356 79.04 127.8 79.1404C129.213 79.2387 130.164 79.9586 130.065 81.382C129.988 82.4801 129.272 83.0841 128.384 83.2266L129.026 84.2725C130.289 83.8904 131.054 82.8811 131.153 81.4475C131.301 79.3328 129.887 78.0596 127.884 77.9203C125.719 77.7697 124.314 78.7243 124.192 80.473Z" fill="#121212"/>
<path d="M122.46 91.2562L123.448 91.504L124.343 87.9353L126.241 88.4112L125.5 91.367L126.488 91.6148L127.23 88.659L128.989 89.1002L128.094 92.6689L129.083 92.9168L130.258 88.231L123.634 86.5704L122.46 91.2562Z" fill="#121212"/>
<path d="M120.643 96.1689L125.993 98.4319L125.175 100.366L126.114 100.763L128.194 95.844L127.256 95.447L126.442 97.3712L121.091 95.1082L120.643 96.1689Z" fill="#121212"/>
<path d="M115.867 104.722L121.432 108.678L122.1 107.74L116.534 103.783L115.867 104.722Z" fill="#121212"/>
<path d="M113.48 107.877L116.253 110.418L117.225 111.198L116.091 111.002L111.201 110.364L110.485 111.145L115.519 115.759L116.297 114.91L113.532 112.376L112.53 111.554L113.773 111.781L118.569 112.43L119.292 111.641L114.258 107.028L113.48 107.877Z" fill="#121212"/>
<path d="M102.896 117.099L106.032 121.989L104.265 123.122L104.815 123.98L109.311 121.097L108.76 120.239L107.002 121.367L103.865 116.477L102.896 117.099Z" fill="#121212"/>
<path d="M96.5017 120.408C94.6678 121.2 94.0241 123.154 94.8079 124.97C95.5876 126.775 97.4515 127.647 99.2854 126.855C101.129 126.059 101.763 124.109 100.983 122.303C100.199 120.488 98.345 119.612 96.5017 120.408ZM96.9287 121.423C98.2386 120.857 99.3082 121.483 99.8698 122.784C100.427 124.075 100.154 125.292 98.8437 125.858C97.5338 126.423 96.4695 125.784 95.912 124.493C95.3504 123.192 95.6188 121.988 96.9287 121.423Z" fill="#121212"/>
<path d="M88.9013 122.955C87.0856 123.381 86.4587 124.501 86.9312 126.516L87.8251 130.326L88.9364 130.065L88.0402 126.245C87.7306 124.925 88.0315 124.289 89.1428 124.029C90.2343 123.773 90.8065 124.204 91.116 125.523L92.0122 129.343L93.1235 129.083L92.2297 125.273C91.7571 123.258 90.6774 122.538 88.9013 122.955Z" fill="#121212"/>
<path d="M80.8867 124.176C79.3812 124.269 78.3921 125.116 77.9957 126.468L79.0379 127.139C79.1886 126.109 79.774 125.337 80.9438 125.265C82.3476 125.178 83.071 126.144 83.1578 127.548C83.2452 128.962 82.6456 130 81.2418 130.087C80.072 130.159 79.3967 129.476 79.1196 128.461L78.168 129.255C78.7284 130.558 79.8138 131.267 81.3193 131.174C83.4148 131.045 84.4998 129.436 84.3784 127.473C84.2571 125.509 82.9822 124.046 80.8867 124.176Z" fill="#121212"/>
<path d="M74.4954 124.255L74.1521 127.211L70.8923 126.832L71.2356 123.876L70.0917 123.743L69.3039 130.526L70.4478 130.659L70.7747 127.845L74.0345 128.223L73.7076 131.038L74.8516 131.17L75.6394 124.388L74.4954 124.255Z" fill="#121212"/>
<path d="M60.3553 123.419L60.0473 124.239L62.4424 125.138L62.7503 124.317L60.3553 123.419Z" fill="#121212"/>
<path d="M52.9866 116.927C51.7237 116.084 50.3864 116.527 49.4895 117.778L50.6528 115.467L50.0425 115.06L48.0789 118.001L50.6726 119.732L51.2102 118.927L49.5743 117.835C50.304 117.183 51.073 116.948 52.0308 117.588C53.1497 118.335 53.1574 119.516 52.3538 120.72C51.5672 121.898 50.4702 122.367 49.2835 121.575C48.3681 120.963 48.1991 120.042 48.5162 119.2L47.2894 119.238C46.9946 120.524 47.4914 121.689 48.6865 122.487C50.4496 123.664 52.2562 123.069 53.371 121.399C54.5763 119.594 54.4446 117.9 52.9866 116.927Z" fill="#121212"/>
<path d="M44.573 110.156L43.8709 110.895L46.5378 113.43L45.1897 114.848L42.9809 112.749L42.2788 113.487L44.4876 115.587L43.2379 116.902L40.571 114.367L39.8689 115.106L43.3706 118.434L48.0746 113.484L44.573 110.156Z" fill="#121212"/>
<path d="M41.1547 106.099L36.5458 109.635L35.2678 107.969L34.4592 108.589L37.71 112.826L38.5186 112.206L37.2468 110.548L41.8557 107.012L41.1547 106.099Z" fill="#121212"/>
<path d="M36.0834 97.7657L29.8979 100.658L30.3857 101.701L36.5712 98.809L36.0834 97.7657Z" fill="#121212"/>
<path d="M34.5054 94.1302L30.924 95.2776L29.7648 95.7346L30.4972 94.8472L33.4762 90.9176L33.1528 89.9083L26.65 91.9916L27.0014 93.0883L30.5731 91.9441L31.7839 91.4812L30.9701 92.4483L28.0275 96.2912L28.354 97.3103L34.8568 95.227L34.5054 94.1302Z" fill="#121212"/>
<path d="M31.743 80.4762L25.9423 80.7898L25.8289 78.6934L24.8113 78.7484L25.0996 84.0811L26.1173 84.026L26.0045 81.9398L31.8052 81.6261L31.743 80.4762Z" fill="#121212"/>
<path d="M32.0321 73.0649C32.2549 71.0798 30.8779 69.551 28.9131 69.3304C26.9584 69.111 25.2767 70.2965 25.0539 72.2815C24.8299 74.2768 26.208 75.7955 28.1627 76.0149C30.1276 76.2354 31.8081 75.0601 32.0321 73.0649ZM30.9394 72.932C30.7802 74.3499 29.7058 74.9677 28.298 74.8096C26.9004 74.6527 25.9796 73.811 26.1387 72.3931C26.2979 70.9751 27.3813 70.3686 28.7789 70.5255C30.1867 70.6835 31.0986 71.514 30.9394 72.932Z" fill="#121212"/>
<path d="M33.5414 65.3254C34.07 63.5368 33.4066 62.4374 31.4226 61.851L27.6695 60.7418L27.3459 61.8364L31.1088 62.9486C32.4087 63.3327 32.8123 63.909 32.4888 65.0036C32.171 66.0788 31.5132 66.3626 30.2133 65.9784L26.4505 64.8663L26.127 65.9609L29.88 67.0702C31.8641 67.6566 33.0244 67.0749 33.5414 65.3254Z" fill="#121212"/>
<path d="M36.4401 57.721C37.1093 56.3692 36.8673 55.0894 35.8924 54.0723L34.7917 54.6418C35.6101 55.2858 35.9873 56.1776 35.4673 57.228C34.8433 58.4884 33.6452 58.6345 32.3848 58.0105C31.1152 57.3819 30.514 56.3451 31.138 55.0847C31.658 54.0343 32.5868 53.7891 33.6043 54.054L33.3898 52.8333C31.9808 52.6703 30.8254 53.2582 30.1562 54.61C29.2247 56.4915 30.0794 58.2338 31.8422 59.1065C33.6049 59.9792 35.5086 59.6025 36.4401 57.721Z" fill="#121212"/>
<path d="M39.4785 52.202L37.0847 50.4338L39.0345 47.7941L41.4283 49.5623L42.1125 48.6359L36.62 44.5789L35.9358 45.5053L38.2148 47.1886L36.265 49.8283L33.986 48.1449L33.3018 49.0713L38.7942 53.1283L39.4785 52.202Z" fill="#121212"/>
<path d="M47.0625 40.4218L46.4991 39.7504L44.5396 41.3948L45.103 42.0662L47.0625 40.4218Z" fill="#121212"/>
<path d="M56.4226 37.0987C57.7785 36.4149 58.0517 35.0329 57.4042 33.6359L58.8429 35.7868L59.498 35.4564L57.9055 32.2987L55.121 33.7031L55.557 34.5675L57.3132 33.6818C57.5217 34.6382 57.3466 35.4228 56.3183 35.9414C55.1172 36.5472 54.0851 35.9719 53.4334 34.6797C52.7955 33.4148 52.9281 32.2293 54.2021 31.5868C55.1849 31.0912 56.0702 31.3981 56.6468 32.0889L57.2174 31.0021C56.2435 30.1121 54.985 29.9706 53.7019 30.6177C51.8092 31.5723 51.4373 33.4378 52.3414 35.2304C53.319 37.1687 54.8574 37.8881 56.4226 37.0987Z" fill="#121212"/>
<path d="M66.2345 33.1645L65.9383 32.1893L62.418 33.2588L61.8492 31.3865L64.7649 30.5007L64.4686 29.5256L61.5529 30.4113L61.0256 28.6756L64.5459 27.6061L64.2497 26.6309L59.6274 28.0352L61.6123 34.5687L66.2345 33.1645Z" fill="#121212"/>
<path d="M71.4496 32.1537L70.6466 26.4002L72.7259 26.11L72.585 25.1006L67.2959 25.8389L67.4368 26.8482L69.506 26.5594L70.309 32.3129L71.4496 32.1537Z" fill="#121212"/>
<path d="M81.4167 31.8162L81.9692 25.0102L80.8213 24.917L80.2688 31.723L81.4167 31.8162Z" fill="#121212"/>
<path d="M85.4878 32.2431L86.2628 28.5631L86.4393 27.3296L86.8481 28.4052L88.7888 32.9383L89.826 33.1567L91.2332 26.4749L90.1063 26.2376L89.3333 29.9076L89.1364 31.1889L88.6987 30.0031L86.8152 25.5445L85.7681 25.324L84.3609 32.0058L85.4878 32.2431Z" fill="#121212"/>
<path d="M98.8794 36.651L101.495 31.4641L103.37 32.4095L103.829 31.4995L99.0605 29.0947L98.6016 30.0047L100.467 30.9455L97.8512 36.1324L98.8794 36.651Z" fill="#121212"/>
<path d="M104.871 40.3865C106.486 41.5615 108.496 41.1204 109.659 39.5215C110.816 37.9308 110.617 35.883 109.002 34.7079C107.378 33.5269 105.376 33.974 104.219 35.5647C103.056 37.1636 103.247 39.2054 104.871 40.3865ZM105.527 39.5024C104.373 38.663 104.367 37.4237 105.2 36.2781C106.027 35.1407 107.214 34.7564 108.368 35.5958C109.522 36.4351 109.514 37.6767 108.686 38.8141C107.853 39.9597 106.68 40.3417 105.527 39.5024Z" fill="#121212"/>
<path d="M110.914 45.5558C112.208 46.8983 113.492 46.864 114.981 45.4279L117.798 42.7113L117.006 41.8896L114.181 44.6133C113.206 45.5542 112.505 45.6207 111.713 44.7991C110.935 43.9921 111.013 43.2799 111.988 42.339L114.813 39.6154L114.021 38.7937L111.203 41.5103C109.714 42.9464 109.647 44.2426 110.914 45.5558Z" fill="#121212"/>
<path d="M116.196 51.9345C117.043 53.1829 118.276 53.6027 119.641 53.2554L119.688 52.0169C118.724 52.4119 117.762 52.3008 117.105 51.3308C116.315 50.1669 116.778 49.0523 117.942 48.2628C119.115 47.4676 120.313 47.4552 121.103 48.6192C121.76 49.5892 121.516 50.5183 120.785 51.2732L121.952 51.6879C122.788 50.5421 122.846 49.247 121.999 47.9986C120.821 46.2611 118.884 46.1466 117.256 47.2507C115.628 48.3548 115.018 50.197 116.196 51.9345Z" fill="#121212"/>
<path d="M119.406 57.0978L122.12 55.8774L123.465 58.8705L120.751 60.0908L121.223 61.1412L127.451 58.3412L126.979 57.2908L124.395 58.4526L123.049 55.4595L125.633 54.2977L125.161 53.2473L118.933 56.0474L119.406 57.0978Z" fill="#121212"/>
<path d="M125.992 69.707L126.854 69.5493L126.394 67.033L125.532 67.1906L125.992 69.707Z" fill="#121212"/>
<path d="M78.0002 52.677L71.0939 71.0937L52.6772 77.9999L71.0939 84.9062L78.0002 103.323L84.9064 84.9062L103.323 77.9999L84.9064 71.0937L78.0002 52.677Z" fill="#121212"/>
</svg>
