<svg width="100" height="100" viewBox="0 0 100 100" fill="none" xmlns="http://www.w3.org/2000/svg">
<path d="M99.5 50C99.5 77.3381 77.3381 99.5 50 99.5C22.6619 99.5 0.500014 77.3381 0.500009 50C0.500004 22.6619 22.6619 0.499996 50 0.499991C77.3381 0.499986 99.5 22.6619 99.5 50Z" stroke="white"/>
<path d="M85.5322 51.9022C85.4511 53.0675 86.2574 53.7916 87.4356 53.9128L85.4479 54.0182L85.4087 54.5813L88.1225 54.77L88.289 52.3769L87.546 52.3252L87.441 53.8346C86.7268 53.5963 86.2769 53.1721 86.3383 52.2883C86.4101 51.256 87.1963 50.7999 88.3069 50.8771C89.394 50.9527 90.1256 51.5066 90.0494 52.6015C89.9907 53.4461 89.4397 53.9107 88.7562 54.0204L89.2504 54.8249C90.2217 54.531 90.8101 53.7546 90.8868 52.6519C90.9999 51.0251 89.9128 50.0458 88.3721 49.9386C86.7063 49.8228 85.6257 50.557 85.5322 51.9022Z" fill="white"/>
<path d="M84.1992 60.1971L84.9596 60.3877L85.6478 57.6426L87.1079 58.0086L86.5378 60.2823L87.2983 60.473L87.8683 58.1993L89.2219 58.5386L88.5336 61.2838L89.2941 61.4745L90.1978 57.87L85.1028 56.5926L84.1992 60.1971Z" fill="white"/>
<path d="M82.802 63.9761L86.9176 65.7169L86.2885 67.2043L87.0106 67.5097L88.6108 63.7262L87.8888 63.4208L87.2627 64.901L83.1471 63.1602L82.802 63.9761Z" fill="white"/>
<path d="M79.1278 70.5556L83.4091 73.5987L83.9224 72.8766L79.6411 69.8335L79.1278 70.5556Z" fill="white"/>
<path d="M77.2921 72.9821L79.4249 74.9365L80.1724 75.5365L79.3003 75.3859L75.539 74.8952L74.9881 75.4963L78.8606 79.0451L79.4592 78.3919L77.3322 76.4428L76.561 75.8106L77.5175 75.9853L81.207 76.4846L81.7632 75.8777L77.8907 72.329L77.2921 72.9821Z" fill="white"/>
<path d="M69.1501 80.076L71.5628 83.8374L70.2034 84.7093L70.6267 85.3692L74.0845 83.1512L73.6612 82.4914L72.3084 83.3591L69.8958 79.5977L69.1501 80.076Z" fill="white"/>
<path d="M64.2316 82.6217C62.8209 83.2309 62.3258 84.7341 62.9287 86.1304C63.5285 87.5195 64.9622 88.1899 66.3729 87.5807C67.7908 86.9685 68.2788 85.4684 67.679 84.0793C67.0761 82.683 65.6495 82.0095 64.2316 82.6217ZM64.5601 83.4022C65.5677 82.9671 66.3905 83.4487 66.8225 84.4491C67.2514 85.4423 67.0408 86.3786 66.0332 86.8137C65.0255 87.2488 64.2069 86.7569 63.778 85.7637C63.346 84.7633 63.5524 83.8373 64.5601 83.4022Z" fill="white"/>
<path d="M58.3855 84.5807C56.9887 84.9083 56.5065 85.7704 56.87 87.3197L57.5576 90.2506L58.4124 90.0501L57.723 87.1116C57.4849 86.0964 57.7164 85.6073 58.5712 85.4068C59.4108 85.2098 59.8509 85.5414 60.0891 86.5565L60.7785 89.495L61.6333 89.2944L60.9457 86.3636C60.5822 84.8142 59.7517 84.2601 58.3855 84.5807Z" fill="white"/>
<path d="M52.2204 85.5199C51.0624 85.5914 50.3015 86.2433 49.9966 87.2832L50.7982 87.7992C50.9142 87.0066 51.3645 86.4132 52.2644 86.3576C53.3442 86.2908 53.9007 87.0341 53.9674 88.1139C54.0346 89.2015 53.5734 89.9998 52.4936 90.0665C51.5938 90.1221 51.0743 89.5966 50.8611 88.8164L50.1291 89.4272C50.5602 90.4295 51.3951 90.9749 52.5532 90.9033C54.1651 90.8037 54.9997 89.566 54.9064 88.0558C54.813 86.5457 53.8323 85.4202 52.2204 85.5199Z" fill="white"/>
<path d="M47.3042 85.5805L47.0401 87.8544L44.5325 87.5632L44.7966 85.2893L43.9167 85.1871L43.3107 90.4046L44.1906 90.5068L44.4421 88.3419L46.9496 88.6332L46.6982 90.7981L47.5781 90.9003L48.1841 85.6827L47.3042 85.5805Z" fill="white"/>
<path d="M36.4272 84.9374L36.1904 85.5686L38.0327 86.2599L38.2696 85.6286L36.4272 84.9374Z" fill="white"/>
<path d="M30.7589 79.9439C29.7874 79.2953 28.7587 79.636 28.0688 80.5988L28.9637 78.8208L28.4942 78.5073L26.9837 80.7698L28.9789 82.1018L29.3924 81.4824L28.134 80.6423C28.6953 80.1404 29.2869 79.9603 30.0237 80.4522C30.8843 81.0268 30.8902 81.9357 30.2721 82.8615C29.6671 83.7678 28.8232 84.1282 27.9104 83.5188C27.2062 83.0487 27.0762 82.3398 27.3201 81.692L26.3765 81.7218C26.1497 82.711 26.5318 83.6071 27.4511 84.2208C28.8073 85.1262 30.197 84.6684 31.0545 83.3839C31.9817 81.9951 31.8804 80.6926 30.7589 79.9439Z" fill="white"/>
<path d="M24.2867 74.7356L23.7466 75.3038L25.7981 77.2535L24.7611 78.3446L23.062 76.7297L22.522 77.298L24.2211 78.9128L23.2597 79.9244L21.2083 77.9747L20.6682 78.543L23.3618 81.1029L26.9803 77.2955L24.2867 74.7356Z" fill="white"/>
<path d="M21.6571 71.6143L18.1118 74.3344L17.1287 73.0531L16.5067 73.5303L19.0073 76.7896L19.6293 76.3123L18.651 75.0372L22.1964 72.3171L21.6571 71.6143Z" fill="white"/>
<path d="M17.7564 65.2044L12.9983 67.4293L13.3735 68.2318L18.1316 66.0068L17.7564 65.2044Z" fill="white"/>
<path d="M16.5424 62.4079L13.7875 63.2905L12.8958 63.6421L13.4592 62.9594L15.7507 59.9367L15.5019 59.1602L10.4998 60.7628L10.7701 61.6065L13.5175 60.7262L14.449 60.3702L13.8229 61.1141L11.5594 64.0702L11.8105 64.8541L16.8127 63.2516L16.5424 62.4079Z" fill="white"/>
<path d="M14.4175 51.9047L9.95534 52.146L9.86814 50.5334L9.08532 50.5757L9.30713 54.6777L10.09 54.6354L10.0032 53.0306L14.4653 52.7893L14.4175 51.9047Z" fill="white"/>
<path d="M14.6398 46.2036C14.8112 44.6766 13.752 43.5006 12.2406 43.3309C10.737 43.1621 9.44341 44.0741 9.272 45.601C9.09971 47.1358 10.1598 48.3041 11.6634 48.4728C13.1748 48.6425 14.4676 47.7384 14.6398 46.2036ZM13.7993 46.1014C13.6769 47.1921 12.8504 47.6673 11.7675 47.5457C10.6924 47.4251 9.98405 46.7775 10.1065 45.6868C10.2289 44.5961 11.0623 44.1296 12.1374 44.2502C13.2203 44.3718 13.9217 45.0107 13.7993 46.1014Z" fill="white"/>
<path d="M15.8011 40.2503C16.2077 38.8744 15.6974 38.0287 14.1712 37.5777L11.2842 36.7244L11.0353 37.5664L13.9299 38.4219C14.9298 38.7174 15.2402 39.1607 14.9914 40.0028C14.7469 40.8298 14.241 41.0481 13.241 40.7526L10.3465 39.8971L10.0977 40.7391L12.9847 41.5924C14.5108 42.0435 15.4034 41.596 15.8011 40.2503Z" fill="white"/>
<path d="M18.0304 34.4007C18.5452 33.3609 18.359 32.3764 17.6091 31.5941L16.7624 32.0322C17.3919 32.5275 17.6822 33.2136 17.2822 34.0215C16.8022 34.9911 15.8805 35.1034 14.9109 34.6234C13.9344 34.14 13.4719 33.3424 13.9519 32.3728C14.3519 31.5649 15.0664 31.3762 15.849 31.58L15.6841 30.641C14.6002 30.5156 13.7114 30.9679 13.1967 32.0077C12.4801 33.455 13.1376 34.7952 14.4936 35.4665C15.8495 36.1378 17.3139 35.8481 18.0304 34.4007Z" fill="white"/>
<path d="M20.3675 30.1553L18.5262 28.7952L20.026 26.7647L21.8674 28.1248L22.3937 27.4122L18.1687 24.2914L17.6424 25.004L19.3954 26.2989L17.8956 28.3294L16.1426 27.0345L15.6162 27.7471L19.8412 30.8678L20.3675 30.1553Z" fill="white"/>
<path d="M26.2015 21.0936L25.7681 20.5772L24.2607 21.842L24.6941 22.3585L26.2015 21.0936Z" fill="white"/>
<path d="M33.4021 18.5375C34.4451 18.0115 34.6553 16.9484 34.1572 15.8738L35.2638 17.5283L35.7678 17.2741L34.5428 14.8452L32.4009 15.9254L32.7363 16.5904L34.0872 15.9091C34.2475 16.6448 34.1129 17.2483 33.3219 17.6472C32.3979 18.1132 31.604 17.6707 31.1027 16.6767C30.612 15.7037 30.7141 14.7918 31.694 14.2976C32.45 13.9163 33.131 14.1524 33.5746 14.6837L34.0135 13.8478C33.2643 13.1632 32.2963 13.0543 31.3093 13.5521C29.8533 14.2864 29.5673 15.7214 30.2627 17.1003C31.0147 18.5913 32.1981 19.1447 33.4021 18.5375Z" fill="white"/>
<path d="M40.9496 15.5111L40.7217 14.7609L38.0137 15.5836L37.5762 14.1434L39.8191 13.462L39.5912 12.7119L37.3483 13.3933L36.9427 12.058L39.6506 11.2354L39.4228 10.4853L35.8672 11.5654L37.394 16.5912L40.9496 15.5111Z" fill="white"/>
<path d="M44.9608 14.7337L44.3431 10.3079L45.9426 10.0847L45.8342 9.30824L41.7656 9.8761L41.874 10.6525L43.4657 10.4304L44.0834 14.8561L44.9608 14.7337Z" fill="white"/>
<path d="M52.6279 14.4739L53.0529 9.23855L52.1699 9.16687L51.7449 14.4022L52.6279 14.4739Z" fill="white"/>
<path d="M55.7595 14.8024L56.3557 11.9716L56.4914 11.0228L56.8059 11.8501L58.2987 15.3372L59.0966 15.5052L60.179 10.3653L59.3122 10.1828L58.7176 13.0059L58.5661 13.9914L58.2295 13.0793L56.7806 9.64962L55.9751 9.47998L54.8926 14.6198L55.7595 14.8024Z" fill="white"/>
<path d="M66.0609 18.193L68.0731 14.2031L69.5151 14.9303L69.8681 14.2303L66.2002 12.3805L65.8472 13.0805L67.2821 13.8042L65.2699 17.7941L66.0609 18.193Z" fill="white"/>
<path d="M70.6696 21.0664C71.9122 21.9703 73.4581 21.6309 74.3527 20.401C75.2428 19.1774 75.0896 17.6021 73.847 16.6983C72.5981 15.7897 71.0585 16.1337 70.1685 17.3573C69.2738 18.5872 69.4206 20.1579 70.6696 21.0664ZM71.174 20.3863C70.2864 19.7407 70.2819 18.7873 70.9229 17.9061C71.5593 17.0312 72.4723 16.7356 73.3599 17.3812C74.2475 18.0269 74.241 18.9819 73.6046 19.8568C72.9636 20.7381 72.0615 21.0319 71.174 20.3863Z" fill="white"/>
<path d="M75.3181 25.0429C76.314 26.0756 77.3014 26.0492 78.447 24.9445L80.614 22.8548L80.0045 22.2228L77.8318 24.3179C77.0813 25.0417 76.5425 25.0929 75.933 24.4608C75.3344 23.8401 75.3943 23.2923 76.1448 22.5685L78.3175 20.4734L77.708 19.8413L75.541 21.931C74.3954 23.0357 74.344 24.0328 75.3181 25.0429Z" fill="white"/>
<path d="M79.3814 29.9495C80.0327 30.9098 80.9811 31.2327 82.0314 30.9656L82.0673 30.0129C81.3261 30.3167 80.5861 30.2313 80.08 29.4852C79.4727 28.5898 79.829 27.7324 80.7244 27.1251C81.6262 26.5135 82.5481 26.5039 83.1554 27.3993C83.6615 28.1454 83.4736 28.8601 82.9108 29.4408L83.8092 29.7598C84.4523 28.8784 84.4965 27.8822 83.8452 26.9219C82.9387 25.5854 81.4485 25.4973 80.1963 26.3466C78.9441 27.1959 78.4749 28.613 79.3814 29.9495Z" fill="white"/>
<path d="M81.8499 33.9213L83.9378 32.9826L84.973 35.285L82.8851 36.2237L83.2484 37.0317L88.039 34.8778L87.6758 34.0698L85.688 34.9635L84.6528 32.6612L86.6406 31.7675L86.2773 30.9595L81.4867 33.1134L81.8499 33.9213Z" fill="white"/>
<path d="M86.9167 43.6207L87.58 43.4994L87.2261 41.5637L86.5629 41.685L86.9167 43.6207Z" fill="white"/>
<path d="M50.0002 30.5209L44.6877 44.6875L30.521 50L44.6877 55.3125L50.0002 69.4792L55.3127 55.3125L69.4793 50L55.3127 44.6875L50.0002 30.5209Z" fill="white"/>
</svg>
